<?xml version="1.0" standalone="no"?>
<!DOCTYPE svg PUBLIC "-//W3C//DTD SVG 20010904//EN"
 "http://www.w3.org/TR/2001/REC-SVG-20010904/DTD/svg10.dtd">
<svg version="1.0" xmlns="http://www.w3.org/2000/svg"
 width="989.000000pt" height="989.000000pt" viewBox="0 0 989.000000 989.000000"
 preserveAspectRatio="xMidYMid meet">
<metadata>
Created by potrace 1.11, written by Peter Selinger 2001-2013
</metadata>
<g transform="translate(0.000000,989.000000) scale(0.100000,-0.100000)"
fill="#000000" stroke="none">
<path d="M7922 9597 c-30 -16 -278 -178 -872 -569 -470 -309 -608 -400 -765
-501 -203 -131 -296 -192 -431 -280 -56 -36 -443 -293 -860 -570 -671 -446
-993 -663 -1269 -853 -129 -89 -778 -527 -1305 -883 -446 -300 -545 -375 -691
-520 -178 -178 -279 -341 -335 -544 -20 -74 -26 -120 -29 -232 -4 -173 10
-241 95 -485 33 -96 74 -213 90 -260 15 -47 74 -218 130 -380 56 -162 105
-306 110 -320 4 -14 36 -104 70 -200 68 -191 119 -342 147 -435 16 -52 21 -60
43 -60 27 0 28 2 75 155 46 150 142 323 233 422 69 75 77 83 142 139 138 119
370 279 1265 877 519 346 1019 684 1120 755 22 16 159 112 305 214 396 277
920 659 1023 746 140 118 334 332 494 544 330 436 599 935 850 1573 156 395
294 847 359 1173 2 10 5 26 8 35 5 17 50 303 62 395 9 69 -14 91 -64 64z
m-1314 -2016 c-79 -219 -267 -522 -453 -730 -91 -103 -301 -306 -394 -381
-247 -199 -385 -300 -799 -586 -164 -112 -304 -209 -312 -214 -8 -6 -79 -54
-157 -108 -78 -53 -245 -167 -370 -252 -486 -331 -577 -393 -855 -586 -158
-109 -295 -205 -305 -212 -10 -7 -151 -107 -315 -222 -163 -116 -305 -210
-316 -210 -20 0 -37 30 -47 85 -8 46 -17 97 -21 125 -8 51 -4 184 7 243 25
142 98 273 211 384 89 88 192 161 403 288 44 26 367 238 717 471 350 233 922
612 1270 843 348 231 638 424 643 428 6 5 141 94 300 199 402 265 595 393 700
464 80 54 91 59 102 44 9 -13 8 -28 -9 -73z"/>
<path d="M4777 4224 c-295 -214 -811 -576 -1327 -929 -141 -97 -429 -300 -452
-320 -9 -8 -72 -51 -140 -96 -288 -193 -387 -285 -471 -439 -60 -110 -89 -235
-88 -380 1 -130 16 -191 107 -425 40 -104 111 -293 158 -420 47 -126 128 -347
182 -490 53 -143 108 -296 121 -340 14 -44 30 -86 35 -92 13 -16 36 -16 52 0
12 12 66 99 103 167 33 59 319 573 340 610 11 19 62 109 113 200 51 91 98 174
104 185 17 31 276 488 286 505 36 59 106 183 125 221 18 35 21 49 12 58 -6 6
-15 11 -19 11 -7 0 -316 -206 -638 -425 -325 -222 -390 -265 -398 -265 -31 1
-35 20 -36 162 -1 178 5 215 50 306 34 70 112 161 174 204 14 10 48 35 77 55
28 21 59 44 70 51 10 7 101 71 203 142 102 72 192 135 200 140 35 24 186 129
196 137 5 4 17 13 26 18 28 18 270 187 363 254 303 218 386 282 439 338 90 94
180 304 211 493 3 19 7 46 10 60 10 55 22 177 30 304 5 65 3 82 -11 97 -10 11
-24 19 -33 18 -9 0 -87 -52 -174 -115z"/>
</g>
</svg>
