<?xml version="1.0" standalone="no"?>
<!DOCTYPE svg PUBLIC "-//W3C//DTD SVG 20010904//EN"
 "http://www.w3.org/TR/2001/REC-SVG-20010904/DTD/svg10.dtd">
<svg version="1.0" xmlns="http://www.w3.org/2000/svg"
 width="265.000000pt" height="265.000000pt" viewBox="0 0 265.000000 265.000000"
 preserveAspectRatio="xMidYMid meet">
<metadata>
Created by potrace 1.11, written by Peter Selinger 2001-2013
</metadata>
<g transform="translate(0.000000,265.000000) scale(0.100000,-0.100000)"
fill="#000000" stroke="none">
<path d="M1945 2238 c-44 -29 -81 -56 -83 -60 -2 -4 -8 -8 -12 -8 -5 0 -37
-19 -72 -42 -35 -24 -73 -48 -84 -55 -130 -81 -261 -165 -310 -200 -34 -24
-65 -43 -68 -43 -4 0 -12 -5 -19 -11 -26 -23 -198 -139 -207 -139 -4 0 -10 -4
-12 -8 -4 -11 -198 -142 -209 -142 -5 0 -9 -5 -9 -10 0 -6 -8 -14 -17 -17 -30
-12 -157 -104 -186 -137 -47 -51 -69 -104 -71 -170 -2 -52 6 -87 55 -226 79
-229 79 -230 95 -230 8 0 14 5 14 11 0 23 40 96 70 126 18 18 75 61 128 96 54
35 171 113 262 172 91 60 167 111 170 114 3 4 25 19 50 36 202 134 297 218
374 335 120 180 228 466 240 634 2 33 -16 28 -99 -26z m-222 -425 c-21 -47
-86 -137 -121 -168 -84 -74 -99 -85 -114 -91 -10 -3 -18 -10 -18 -15 0 -5 -7
-9 -15 -9 -8 0 -15 -4 -15 -10 0 -5 -6 -10 -14 -10 -8 0 -16 -4 -18 -8 -1 -4
-57 -43 -123 -87 -117 -78 -336 -228 -384 -263 -13 -9 -38 -27 -54 -39 -42
-31 -54 -29 -59 12 -8 73 43 151 128 195 16 8 34 19 39 23 6 4 39 27 75 50 36
23 71 47 78 54 7 7 19 13 27 13 7 0 15 7 19 15 3 8 10 15 16 15 9 0 72 38 105
63 6 4 73 48 150 98 77 51 176 116 220 145 44 29 83 53 87 53 4 1 0 -16 -9
-36z"/>
<path d="M1371 1133 c-13 -5 -52 -33 -336 -233 -59 -41 -114 -79 -123 -85 -67
-42 -112 -108 -112 -165 0 -46 119 -391 135 -392 6 -1 47 64 92 143 46 79 99
172 119 207 20 35 34 66 31 69 -3 3 -52 -26 -109 -64 -57 -38 -109 -73 -115
-77 -20 -11 -7 84 15 114 11 14 48 44 83 67 35 23 69 46 74 51 6 5 24 17 40
28 69 43 171 119 180 134 21 31 36 87 42 148 3 34 4 62 2 61 -2 0 -10 -3 -18
-6z"/>
</g>
</svg>
