<?xml version="1.0" encoding="utf-8"?>
<!-- Generator: Adobe Illustrator 23.0.3, SVG Export Plug-In . SVG Version: 6.00 Build 0)  -->
<svg version="1.1" id="Layer_1" xmlns="http://www.w3.org/2000/svg" xmlns:xlink="http://www.w3.org/1999/xlink" x="0px" y="0px"
	 width="50px" height="49.5px" viewBox="0 0 50 49.5" style="enable-background:new 0 0 50 49.5;" xml:space="preserve">
<style type="text/css">
	.st0{fill:url(#SVGID_1_);}
	.st1{fill:#FFFFFF;}
	.st2{fill:#0094A3;}
</style>
<g>
	<g>
		
			<linearGradient id="SVGID_1_" gradientUnits="userSpaceOnUse" x1="4.1957" y1="27.3" x2="45.8635" y2="27.3" gradientTransform="matrix(1 0 0 -1 0 52)">
			<stop  offset="0" style="stop-color:#008BA2"/>
			<stop  offset="0.7014" style="stop-color:#3CA4AE"/>
			<stop  offset="0.9989" style="stop-color:#30A8B4"/>
		</linearGradient>
		<circle class="st0" cx="25" cy="24.7" r="20.8"/>
		<g>
			<path class="st1" d="M12.6,26.6c0.1-1.8,1.5-3,2.9-3.9c1.7-1.2,3.4-2.3,5.1-3.5c2.7-1.9,5.4-3.7,8.2-5.5c0.8-0.5,1.6-1,2.4-1.5
				c1.3-0.9,2.6-1.7,3.9-2.6c0.5-0.3,1.1-0.7,1.6-1C36.9,8.5,37,8.5,37,8.8c-0.2,2.2-0.9,4.3-1.7,6.3c-0.9,2.3-2.1,4.5-3.8,6.4
				c-0.4,0.5-0.8,0.9-1.3,1.2c-0.5,0.4-1.1,0.8-1.6,1.2c-1.1,0.8-2.2,1.5-3.3,2.3c-1.6,1.1-3.2,2.2-4.8,3.2c-0.7,0.4-1.3,0.9-2,1.3
				c-0.6,0.4-1.3,0.9-1.9,1.4c-0.6,0.6-1.1,1.4-1.3,2.2c0,0.1,0,0.1-0.1,0.2c0,0,0,0.1-0.1,0.1c0,0-0.1,0-0.2,0c0,0,0-0.1-0.1-0.1
				c-0.1-0.5-0.3-0.9-0.5-1.4s-0.3-1-0.5-1.5c-0.2-0.7-0.5-1.4-0.7-2.1c-0.2-0.5-0.4-1-0.5-1.5C12.7,27.6,12.6,27.1,12.6,26.6z
				 M15.9,27.4c0,0.4,0,0.9,0.1,1.3c0,0.2,0.1,0.3,0.3,0.1c3.2-2.3,6.6-4.6,9.9-6.8c0.7-0.5,1.3-0.9,2-1.4c0.6-0.5,1.3-1,1.8-1.6
				c0.6-0.6,1-1.2,1.4-1.9c0.2-0.4,0.4-0.8,0.5-1.2v-0.1h-0.1c-0.8,0.6-1.7,1.1-2.5,1.7c-0.9,0.6-1.7,1.1-2.6,1.7s-1.7,1.1-2.6,1.7
				s-1.7,1.1-2.6,1.7c-1,0.6-1.9,1.3-2.9,1.9C17.5,25.2,16.1,25.8,15.9,27.4z"/>
			<path class="st1" d="M26,28.8c-0.1,0.8-0.2,1.6-0.6,2.4c-0.3,0.5-0.7,0.7-1.1,1c-0.8,0.6-1.5,1.1-2.3,1.6c-0.7,0.5-1.5,1-2.2,1.5
				c-0.4,0.3-0.9,0.6-1.1,1.1s-0.2,1.1-0.2,1.6c0,0.2,0.1,0.1,0.2,0.1c0.6-0.4,1.2-0.8,1.9-1.3c0.6-0.4,1.1-0.8,1.7-1.1
				c0.1,0,0.1-0.1,0.2-0.1c0.1,0.1,0,0.2,0,0.2c-0.5,0.9-1,1.8-1.6,2.7c-0.7,1.3-1.4,2.5-2.1,3.8c-0.1,0.1-0.1,0.2-0.2,0.4
				c0,0.1-0.1,0.1-0.2,0.1s-0.1-0.1-0.1-0.1c-0.2-0.8-0.6-1.5-0.8-2.3c-0.2-0.7-0.5-1.3-0.7-2c-0.2-0.6-0.5-1.2-0.6-1.8
				c-0.1-0.9,0.1-1.6,0.7-2.3c0.5-0.6,1.2-0.9,1.8-1.4c0.7-0.5,1.5-1.1,2.3-1.6c0.8-0.6,1.6-1.1,2.4-1.7c0.8-0.5,1.5-1.1,2.3-1.6
				c0.1-0.1,0.1-0.1,0.2-0.1C26,28,26,28.1,26,28.2C26,28.4,26,28.6,26,28.8z"/>
		</g>
		<g>
			<path class="st2" d="M25,47C12.8,47,2.8,37,2.8,24.7S12.8,2.5,25,2.5s22.2,10,22.2,22.2S37.3,47,25,47z M25,3
				C13,3,3.2,12.8,3.2,24.8S13,46.5,25,46.5s21.8-9.7,21.8-21.8S37.1,3,25,3z"/>
		</g>
	</g>
</g>
</svg>
